<svg width="560" height="393" viewBox="0 0 560 393" fill="none" xmlns="http://www.w3.org/2000/svg">
<path d="M548.253 247.313C554.136 239.166 554.009 226.28 552.132 223.877C568.145 222.291 556.01 244.813 548.253 247.313" fill="black"/>
<path d="M342.735 190.677C340.818 186.913 334.499 184.774 335.441 178.448C335.468 178.251 335.235 178.015 335.095 177.816C333.767 175.923 332.533 176.054 331.196 178.059C327.938 182.935 324.592 187.77 321.238 192.561C312.015 205.735 277.596 249.288 265.714 250.726C263.355 251.007 262.377 249.222 262.206 247.251C261.568 239.846 269.046 221.118 280.441 206.779C269.521 226.187 267.759 237.964 270.051 240.629C278.137 211.015 304.858 183.079 327.06 164.118C327.52 163.647 327.92 163.273 327.914 162.861C327.833 156.495 318.47 149.492 308.058 149.909C309.452 145.42 305.626 142.324 302.655 142.451C299.732 147.9 284.136 171.501 275.637 180.741C253.148 205.503 220.645 230.994 185.878 245.663C185.197 246.014 192.18 252.798 206.595 246.107C206.289 246.813 202.316 250.327 198.683 250.774C200.668 252.557 208.399 252.74 214.541 250.764C228.35 246.314 249.737 223.972 256.129 215.593C252.249 222.119 235.798 247.449 232.594 267.369C230.92 277.777 232.136 286.385 238.236 287.277C239.425 297.224 246.954 304.426 252.398 303.737C253.329 303.623 254.302 302.871 254.591 301.406C259.967 274.081 297.092 228.396 300.467 233.021C288.619 248.937 278.001 279.629 283.291 294.173C286.471 302.916 299.809 306.271 317.162 299.377C303.289 292.789 306.418 259.068 311.766 245.872C307.436 267.318 310.208 286.375 315.974 290.816L316.326 290.595C307.408 250.353 327.77 212.516 342.515 196.871C343.836 194.647 343.872 192.905 342.735 190.677" fill="black"/>
<path d="M153.996 342.504C138.077 345.488 130.096 315.515 153.573 305.459C159.756 302.807 170.489 302.758 170.621 309.215C141.724 315.46 142.124 340.372 153.996 342.504" fill="black"/>
<path d="M204.705 48.1953V48.1953C97.9334 73.3497 -12.3514 164.676 45.3266 187.171C28.4623 159.882 74.1275 91.5884 204.705 48.1953" fill="black"/>
<path d="M116.658 379.059C122.229 378.112 122.596 373.214 118.892 370.164C111.004 363.681 107.801 352.646 111.377 346.189C106.521 349.75 101.473 359.384 104.542 368.917C106.458 374.863 111.708 379.898 116.658 379.059" fill="black"/>
<path d="M245.054 136.326C234.668 152.246 193.058 176.125 151.965 175.246C158.388 187.307 173.165 198.46 201.33 193.637C260.588 183.487 331.833 107.235 326.728 55.0773C326.51 55.0773 326.287 55.0773 326.068 55.0758C324.51 72.2089 313.424 96.7983 303.046 105.291C309.23 97.4618 320.741 76.194 320.476 53.9254C319.819 -1.08066 247.327 -16.3772 163.401 19.0719C163.065 19.2131 211.386 5.59923 232.6 8.30252C104.257 28.3196 2.65964 123.038 0.0715459 186.491C-4.4809 298.117 209.759 241.7 202.781 310.363C213.511 276.704 150.455 257.213 143.159 252.341C143.948 251.991 144.511 252.001 145.041 252.11C163.038 255.705 206.71 274.978 207.703 300.35C209.404 343.742 149.261 353.512 137.4 344.632C139.157 351.395 153.398 359.923 168.862 356.141C161.875 359.89 132.204 359.997 130.76 337.37C129.887 323.71 136.595 314.876 136.595 314.876C135.273 314.99 132.361 319.163 131.433 320.953C130.803 322.165 130.194 323.12 128.528 323.012C127.804 322.966 126.641 323.56 126.283 324.248C114.07 347.758 131.246 375.48 164.473 373.02C186.169 371.416 200.756 361.261 206.703 354.836C203.492 357.03 197.466 360.816 192.821 361.477C192.747 361.296 192.675 361.114 192.602 360.933C208.2 351.854 221.108 338.43 223.369 320.335C235.39 224.08 33.529 235.472 24.0192 178.504C11.32 102.424 249.134 0.011953 304.69 48.5385C298.405 17.2128 215.549 31.1189 215.527 30.8888C256.058 17.4161 310.641 19.9457 311.921 52.6478C312.947 78.8267 261.885 143.462 164.269 164.65C183.954 171.151 226.078 153.179 245.054 136.326" fill="black"/>
<path fill-rule="evenodd" clip-rule="evenodd" d="M470.285 227.235C497.24 215.556 542.929 211.133 547.24 221.982C551.631 233.032 542.369 250.172 536.752 257.426C535.731 258.746 531.853 259.892 533.024 258.379C535.446 255.241 538.621 247.08 537.546 241.551C535.426 230.66 503.214 233.276 480.438 240.696C514.083 233.315 534.852 235.97 532.833 247.286C524.66 240.94 494.403 241.345 475.72 247.097C477.95 260.512 478.493 275.836 477.924 288.225C477.795 291.039 477.631 293.744 477.446 296.381C474.822 334.512 450.839 351.135 442.488 329.763C442.488 329.763 444.216 349.232 457.28 348.773C462.545 348.588 468.095 341.669 472.462 331.41C466.902 354.275 458.012 364.258 448.411 364.594C434.596 365.078 415.255 334.182 433.507 258.252C426.104 261.698 408.599 274.439 395.443 286.245C409.363 265.157 440.589 245.792 460.021 237.478C440.333 244.236 389.153 271.246 380.982 303.839C398.168 304.123 413.614 306.957 412.794 314.239C362.87 307.115 283.58 325.73 284.168 344.098C305.986 330.909 333.098 323.14 354.494 320.111C360.283 319.184 363.857 319.061 363.85 319.888C319.649 328.247 269.289 357.36 239.89 393C235.611 391.502 232.868 379.074 239.146 369.112C239.632 368.342 240.279 367.303 240.132 366.542C240.371 331.931 290.895 309.646 353.244 305.683C349.156 299.759 342.407 278.186 361.513 254.345C351.134 264.769 346.409 275.73 345.362 285.288C344.608 292.16 345.759 298.304 348.083 302.996C342.346 297.755 339.476 289.7 339.282 284.18C338.678 266.926 361.76 246.702 381.372 229.518C395.962 216.734 408.632 205.633 408.2 198.689C407.601 189.078 393.935 183.693 393.935 183.693C389.268 191.162 370.642 220.298 359.098 233.653C369.482 217.597 375.112 205.818 374.978 205.164C368.127 215.541 343.386 248.906 340.685 250.112C339.796 250.512 338.836 250.787 337.837 251.073C337.312 251.224 336.776 251.377 336.234 251.554C358.535 227.269 378.047 188.216 381.002 179.815C367.896 174.947 351.594 175.441 351.594 175.441C346.532 164.175 356.577 142.888 395.736 155.66C386.86 149.593 366.742 144.513 357.032 151.508C357.225 139.322 379.052 140.775 393.093 150.304C394.407 146.316 395.822 138.785 394.526 133.964C401.743 133.259 410.272 136.884 411.604 145.123C412.77 152.326 409.277 159.083 407.878 161.519C415.587 165.438 433.589 180.159 434.478 194.42C434.792 199.449 424.641 208.502 413.407 218.519C402.615 228.143 390.823 238.658 386.352 247.353C392.674 238.755 402.757 230.531 412.498 222.585C422.133 214.726 431.434 207.139 436.428 199.735C437.84 200.958 440.141 207.963 436.77 210.345C434.481 211.961 432.14 213.59 429.776 215.236C404.588 232.77 376.654 252.215 378.3 278.21C378.351 279.035 379.118 281.355 379.706 280.727C390.275 269.447 421.191 250.632 437.782 243.588H437.818C453.552 190.051 482.789 131.83 496.705 131.34C486.076 141.613 468.669 173.045 465.382 190.294L466.863 190.243C473.967 174.84 490.015 142.328 505.639 125.635C518.444 115.206 537.834 124.718 537.324 132.039C532.998 135.436 528.648 139.315 524.345 143.534C499.403 167.996 476.101 203.898 468.43 223.536C469.088 224.68 469.703 225.914 470.285 227.235ZM457.166 248.972C444.722 281.272 442.974 321.686 453.355 321.064C459.888 320.832 471.713 299.106 468.378 259.843L467.146 259.884C467.521 284.547 461.01 310.524 455.077 310.73C459.208 299.048 463.2 272.447 461.052 247.58C459.636 248.013 458.325 248.47 457.166 248.972Z" fill="black"/>
</svg>
